<?xml version="1.0" encoding="UTF-8"?><svg id="Ebene_2" xmlns="http://www.w3.org/2000/svg" viewBox="0 0 144.05 104.97"><defs><style>.cls-1{fill:#fff;}</style></defs><g id="Layer_1"><rect class="cls-1" x="91.05" y="83.85" width="8.89" height="8.02"/><path class="cls-1" d="m30.08,59.35h8.19c8.41,0,15.3,6.67,15.75,15.04,3.56-5.78,3.8-12.78.62-18.85-3.22-6.15-9.21-9.86-16.04-9.94h-9.22c-8.69,0-15.77-7.14-15.77-15.92s7.07-15.91,15.77-15.91h29.41L67.52,0H29.38c-8,0-15.48,3.2-21.06,9.01C2.73,14.81-.22,22.46.01,30.54c.45,15.88,13.94,28.8,30.07,28.8Z"/><path class="cls-1" d="m135.49,92.02l-.25-.4v-21.03h-7.93v14.18l-.04,1.56h-1.5l-.84-.02-4.04-6.11-.29-.42v-10.28l-6.95-10.51-.39-.62.2-.67.22-.69.63-.29c8.84-4.03,15.15-12.16,16.87-21.74,1.52-8.47-.8-17.19-6.36-23.92-5.81-7.03-14.34-11.06-23.39-11.06h-18.81l-8.73,13.76h28.38c8.69,0,15.77,7.14,15.77,15.91,0,2.37-.51,4.67-1.52,6.83-2.6,5.53-8.19,9.1-14.25,9.1h-15.84l-25.74,39.01c-2.73,4.13-7.29,6.6-12.21,6.6H.07c.76,7.72,7.22,13.76,15.06,13.76h39.21c5.85,0,11.27-2.94,14.52-7.85l26.78-40.62,2.33,3.52,29.65,44.94h16.43l-8.56-12.94Z"/></g></svg>