<?xml version="1.0" encoding="utf-8"?>
<!-- Generator: Adobe Illustrator 28.0.0, SVG Export Plug-In . SVG Version: 6.00 Build 0)  -->
<svg version="1.1" id="Ebene_2_00000165232740630871532230000003673257992223138458_"
	 xmlns="http://www.w3.org/2000/svg" xmlns:xlink="http://www.w3.org/1999/xlink" x="0px" y="0px" viewBox="0 0 548.1 105"
	 style="enable-background:new 0 0 548.1 105;" xml:space="preserve">
<style type="text/css">
	.st0{fill:#EE7600;}
	.st1{fill:#8B8989;}
</style>
<g id="Layer_1">
	<rect x="91.1" y="83.8" class="st0" width="8.9" height="8"/>
	<path class="st1" d="M194.9,34c-1.8-0.8-3.8-1.6-5.9-2.2c-2.2-0.6-4.3-0.9-6.3-0.9c-2.8,0-5.1,0.6-6.8,1.8s-2.5,2.8-2.5,4.8
		c0,1.5,0.6,2.8,1.6,3.8c1.1,1,2.5,1.9,4.3,2.7c1.7,0.8,3.6,1.5,5.6,2.1c1.6,0.5,3.2,1.2,4.9,1.9c1.6,0.7,3.1,1.6,4.4,2.7
		c1.3,1.1,2.3,2.4,3.1,3.9c0.8,1.5,1.1,3.5,1.1,5.7c0,2.6-0.7,4.9-2.1,7c-1.4,2.1-3.4,3.7-6,4.9c-2.6,1.2-5.7,1.8-9.3,1.8
		c-2.3,0-4.5-0.2-6.6-0.7c-2.1-0.5-4.1-1.1-5.9-1.9c-1.8-0.8-3.4-1.6-4.9-2.4l3.2-5c1.2,0.8,2.5,1.5,4,2.2c1.5,0.7,3.1,1.2,4.8,1.6
		c1.7,0.4,3.3,0.6,4.9,0.6c1.7,0,3.4-0.3,5-0.8c1.6-0.5,3-1.4,4-2.5c1.1-1.2,1.6-2.7,1.6-4.6c0-1.6-0.5-2.9-1.4-4
		c-1-1.1-2.2-2-3.8-2.8c-1.5-0.8-3.2-1.5-5-2.1c-1.7-0.5-3.4-1.2-5.1-1.9s-3.3-1.6-4.7-2.5c-1.4-1-2.6-2.2-3.5-3.7S166,40.1,166,38
		c0-2.5,0.7-4.7,2-6.6s3.2-3.4,5.6-4.4s5.1-1.7,8.1-1.8c3.4,0,6.4,0.4,9.1,1.1c2.6,0.8,4.9,1.7,6.9,2.7L194.9,34L194.9,34z"/>
	<path class="st1" d="M224.3,25.5c2.7,0,5.2,0.3,7.5,1c2.3,0.6,4.3,1.6,5.9,2.9s3,2.8,4,4.7s1.4,4,1.4,6.4c0,1.9-0.3,3.8-0.9,5.6
		s-1.6,3.5-3,4.9c-1.4,1.5-3.2,2.7-5.5,3.6c-2.3,0.9-5.1,1.4-8.5,1.4h-7.9v17.6h-7.1V25.5H224.3z M225.1,49.5c2.1,0,3.9-0.3,5.2-0.9
		c1.4-0.6,2.5-1.3,3.3-2.2s1.4-1.9,1.7-2.9c0.3-1,0.5-2,0.5-3s-0.2-2-0.6-3c-0.4-1-1-2-1.8-2.9c-0.8-0.9-1.9-1.7-3.2-2.2
		s-2.9-0.9-4.7-0.9h-8.2v17.9L225.1,49.5L225.1,49.5z M233.8,53.2l13.9,20.2h-8.2l-14.2-20C225.3,53.5,233.8,53.3,233.8,53.2z"/>
	<path class="st1" d="M254.9,56.4h13.7v5.4h-13.7L254.9,56.4L254.9,56.4z"/>
	<path class="st1" d="M323,25.5v47.9h-7.1v-21h-27.8v21H281V25.5h7.1v20.8h27.8V25.5C315.9,25.5,323,25.5,323,25.5z"/>
	<path class="st1" d="M335,49.5c0-3.3,0.7-6.5,2.1-9.4c1.4-3,3.3-5.6,5.8-7.9s5.4-4.1,8.6-5.3s6.8-1.9,10.5-1.9s7.1,0.6,10.4,1.9
		s6.2,3.1,8.7,5.3c2.5,2.3,4.5,4.9,5.9,7.9c1.4,3,2.1,6.1,2.1,9.5s-0.7,6.5-2.1,9.5s-3.4,5.6-5.9,7.8s-5.4,4-8.7,5.2
		c-3.3,1.3-6.8,1.9-10.5,1.9s-7.3-0.6-10.5-1.9c-3.3-1.2-6.1-3-8.6-5.2c-2.5-2.2-4.5-4.8-5.8-7.8C335.7,56.2,335,52.9,335,49.5
		L335,49.5z M342.4,49.5c0,2.6,0.5,4.9,1.5,7.1c1,2.2,2.4,4.1,4.3,5.8s3.9,3,6.3,3.9s5,1.4,7.8,1.4s5.4-0.5,7.8-1.4
		c2.4-0.9,4.5-2.2,6.2-3.9s3.2-3.6,4.2-5.8s1.5-4.6,1.5-7.1s-0.5-5-1.5-7.2s-2.4-4.2-4.2-5.9s-3.9-3-6.3-4c-2.4-1-5-1.4-7.8-1.4
		s-5.4,0.5-7.8,1.5c-2.4,1-4.5,2.3-6.3,4s-3.2,3.6-4.1,5.9C342.8,44.6,342.4,47,342.4,49.5L342.4,49.5z"/>
	<path class="st1" d="M401.3,73.4V24h0.1l27.9,35.7l-3-0.6L454,24h0.1v49.5H447V38.5l0.5,3.2l-20,25.6h-0.1L407,41.8l1.2-3v34.6
		H401.3L401.3,73.4z"/>
	<path class="st1" d="M469.4,25.5h34.5v6.2h-27.4v14.6H501v6.2h-24.5v14.8H505v6.2h-35.6V25.5z"/>
	<path class="st1" d="M544.8,34c-1.8-0.8-3.8-1.6-6-2.2c-2.2-0.6-4.3-0.9-6.3-0.9c-2.8,0-5.1,0.6-6.8,1.8s-2.5,2.8-2.5,4.8
		c0,1.5,0.5,2.8,1.7,3.8c1.1,1,2.5,1.9,4.3,2.7c1.7,0.8,3.6,1.5,5.5,2.1c1.6,0.5,3.2,1.2,4.8,1.9s3.1,1.6,4.4,2.7
		c1.3,1.1,2.3,2.4,3.1,3.9c0.8,1.5,1.1,3.5,1.1,5.7c0,2.6-0.7,4.9-2.1,7c-1.4,2.1-3.4,3.7-6,4.9c-2.6,1.2-5.7,1.8-9.3,1.8
		c-2.3,0-4.5-0.2-6.7-0.7c-2.1-0.5-4.1-1.1-5.9-1.9c-1.8-0.8-3.4-1.6-4.8-2.4l3.2-5c1.2,0.8,2.5,1.5,4,2.2c1.5,0.7,3.1,1.2,4.8,1.6
		c1.7,0.4,3.3,0.6,4.8,0.6c1.7,0,3.4-0.3,5-0.8c1.6-0.5,3-1.4,4-2.5c1.1-1.2,1.6-2.7,1.6-4.6c0-1.6-0.5-2.9-1.4-4
		c-1-1.1-2.2-2-3.8-2.8c-1.5-0.8-3.2-1.5-5-2.1c-1.7-0.5-3.4-1.2-5.1-1.9s-3.3-1.6-4.7-2.5c-1.5-1-2.6-2.2-3.5-3.7
		c-0.9-1.5-1.4-3.2-1.4-5.3c0-2.5,0.7-4.7,2-6.6c1.3-1.9,3.2-3.4,5.5-4.4s5-1.7,8.1-1.8c3.4,0,6.5,0.4,9.1,1.1
		c2.6,0.8,4.9,1.7,6.9,2.7L544.8,34L544.8,34z"/>
	<path class="st0" d="M30.1,59.3h8.2c8.4,0,15.3,6.7,15.8,15c3.6-5.8,3.8-12.8,0.6-18.8c-3.2-6.2-9.2-9.9-16-9.9h-9.2
		c-8.7,0-15.8-7.1-15.8-15.9s7.1-15.9,15.8-15.9h29.2L67.3,0H29.4c-8,0-15.5,3.2-21.1,9C2.7,14.8-0.2,22.5,0,30.5
		C0.5,46.4,13.9,59.3,30.1,59.3L30.1,59.3z"/>
	<path class="st0" d="M135.5,92l-0.2-0.4v-21h-7.9v14.2l0,1.6h-1.5l-0.8,0l-4-6.1l-0.3-0.4V69.5L113.7,59l-0.4-0.6l0.2-0.7l0.2-0.7
		l0.6-0.3c8.8-4,15.2-12.2,16.9-21.7c1.5-8.5-0.8-17.2-6.4-23.9C119,4,110.5,0,101.4,0H82.4l-8.7,13.8h28.6
		c8.7,0,15.8,7.1,15.8,15.9c0,2.4-0.5,4.7-1.5,6.8c-2.6,5.5-8.2,9.1-14.2,9.1H86.4l-25.7,39c-2.7,4.1-7.3,6.6-12.2,6.6H0.1
		C0.8,98.9,7.3,105,15.1,105h39.2c5.8,0,11.3-2.9,14.5-7.8l26.8-40.6L98,60l29.7,44.9h16.4C144.1,105,135.5,92,135.5,92z"/>
</g>
</svg>
