<?xml version="1.0" encoding="UTF-8"?><svg id="Ebene_2" xmlns="http://www.w3.org/2000/svg" viewBox="0 0 548.1 104.97"><defs><style>.cls-1{fill:#ee7600;}.cls-2{fill:#fff;}</style></defs><g id="Layer_1"><rect class="cls-2" x="91.05" y="83.85" width="8.89" height="8.02"/><path class="cls-2" d="m194.94,34.02c-1.81-.84-3.8-1.57-5.95-2.19-2.16-.62-4.26-.93-6.32-.93-2.84,0-5.11.6-6.8,1.79-1.69,1.19-2.54,2.78-2.54,4.77,0,1.5.55,2.77,1.65,3.81,1.1,1.04,2.52,1.93,4.26,2.69,1.74.75,3.59,1.46,5.55,2.12,1.62.53,3.23,1.16,4.85,1.89,1.62.73,3.07,1.62,4.37,2.69,1.3,1.06,2.33,2.37,3.09,3.91.76,1.55,1.14,3.45,1.14,5.7,0,2.56-.7,4.88-2.09,6.96-1.4,2.08-3.39,3.71-5.99,4.91-2.6,1.19-5.71,1.79-9.33,1.79-2.3,0-4.52-.23-6.65-.7-2.13-.46-4.1-1.09-5.92-1.89-1.81-.8-3.43-1.61-4.85-2.45l3.16-5.04c1.18.75,2.52,1.47,4.04,2.15,1.52.69,3.11,1.23,4.78,1.62,1.66.4,3.28.6,4.85.6,1.71,0,3.38-.27,5-.8,1.62-.53,2.96-1.37,4.04-2.52,1.08-1.15,1.62-2.67,1.62-4.57,0-1.59-.48-2.94-1.43-4.04-.96-1.1-2.2-2.04-3.75-2.82-1.54-.77-3.22-1.47-5.03-2.09-1.72-.53-3.42-1.15-5.11-1.86-1.69-.71-3.26-1.56-4.7-2.55-1.45-.99-2.62-2.22-3.53-3.68-.91-1.46-1.36-3.23-1.36-5.3,0-2.52.67-4.72,2.02-6.6,1.35-1.88,3.2-3.36,5.55-4.44,2.35-1.08,5.05-1.67,8.08-1.76,3.43,0,6.45.38,9.08,1.13,2.62.75,4.93,1.66,6.94,2.72l-2.72,4.97Z"/><path class="cls-2" d="m224.33,25.47c2.69,0,5.18.32,7.46.96,2.28.64,4.26,1.59,5.95,2.85,1.69,1.26,3.01,2.82,3.97,4.67s1.43,3.98,1.43,6.37c0,1.9-.31,3.76-.92,5.57-.61,1.81-1.62,3.46-3.01,4.94-1.4,1.48-3.23,2.67-5.51,3.58-2.28.91-5.11,1.36-8.49,1.36h-7.86v17.64h-7.13V25.47h14.11Zm.73,24.07c2.11,0,3.86-.29,5.25-.86,1.4-.57,2.49-1.31,3.27-2.22.78-.91,1.35-1.87,1.69-2.88.34-1.02.51-2.01.51-2.98s-.18-1.97-.55-2.98c-.37-1.02-.96-1.98-1.76-2.88-.81-.91-1.86-1.65-3.16-2.22-1.3-.57-2.88-.86-4.74-.86h-8.23v17.9h7.72Zm8.74,3.71l13.89,20.16h-8.23l-14.18-19.96,8.52-.2Z"/><path class="cls-2" d="m254.9,56.44h13.74v5.44h-13.74v-5.44Z"/><path class="cls-2" d="m323.02,25.47v47.94h-7.13v-21.02h-27.78v21.02h-7.13V25.47h7.13v20.75h27.78v-20.75h7.13Z"/><path class="cls-2" d="m335,49.47c0-3.32.7-6.45,2.09-9.42,1.4-2.96,3.34-5.58,5.84-7.86,2.5-2.28,5.38-4.06,8.64-5.34,3.26-1.28,6.77-1.92,10.55-1.92s7.15.64,10.43,1.92c3.28,1.28,6.18,3.06,8.71,5.34,2.52,2.28,4.49,4.9,5.92,7.86,1.42,2.96,2.13,6.12,2.13,9.48s-.71,6.52-2.13,9.48c-1.42,2.96-3.38,5.56-5.88,7.79-2.5,2.23-5.39,3.98-8.67,5.24-3.28,1.26-6.79,1.89-10.51,1.89s-7.29-.62-10.55-1.86c-3.26-1.24-6.14-2.97-8.64-5.21-2.5-2.23-4.45-4.82-5.84-7.76-1.4-2.94-2.09-6.16-2.09-9.65Zm7.35,0c0,2.56.5,4.94,1.51,7.13,1,2.19,2.42,4.12,4.26,5.8,1.84,1.68,3.94,3,6.32,3.95,2.38.95,4.96,1.43,7.75,1.43s5.38-.47,7.75-1.43c2.38-.95,4.46-2.25,6.25-3.91,1.79-1.66,3.2-3.59,4.23-5.8,1.03-2.21,1.54-4.57,1.54-7.09s-.51-4.95-1.54-7.16c-1.03-2.21-2.44-4.17-4.23-5.87-1.79-1.7-3.9-3.03-6.32-3.98-2.43-.95-5.01-1.43-7.75-1.43s-5.4.49-7.83,1.46c-2.43.97-4.53,2.3-6.32,3.98-1.79,1.68-3.17,3.64-4.15,5.87-.98,2.23-1.47,4.59-1.47,7.06Z"/><path class="cls-2" d="m401.28,73.41V23.95h.07l27.85,35.74-3.01-.6,27.85-35.14h.07v49.46h-7.13v-34.88l.51,3.25-19.99,25.59h-.15l-20.36-25.59,1.18-2.98v34.61h-6.91Z"/><path class="cls-2" d="m469.4,25.47h34.54v6.17h-27.41v14.59h24.47v6.23h-24.47v14.79h28.44v6.17h-35.57V25.47Z"/><path class="cls-2" d="m544.8,34.02c-1.81-.84-3.8-1.57-5.95-2.19-2.16-.62-4.26-.93-6.32-.93-2.84,0-5.11.6-6.8,1.79-1.69,1.19-2.54,2.78-2.54,4.77,0,1.5.55,2.77,1.65,3.81,1.1,1.04,2.52,1.93,4.26,2.69,1.74.75,3.59,1.46,5.55,2.12,1.62.53,3.23,1.16,4.85,1.89,1.62.73,3.07,1.62,4.37,2.69,1.3,1.06,2.33,2.37,3.09,3.91.76,1.55,1.14,3.45,1.14,5.7,0,2.56-.7,4.88-2.09,6.96-1.4,2.08-3.39,3.71-5.99,4.91-2.6,1.19-5.71,1.79-9.33,1.79-2.3,0-4.52-.23-6.65-.7-2.13-.46-4.1-1.09-5.92-1.89-1.81-.8-3.43-1.61-4.85-2.45l3.16-5.04c1.18.75,2.52,1.47,4.04,2.15,1.52.69,3.11,1.23,4.78,1.62,1.66.4,3.28.6,4.85.6,1.71,0,3.38-.27,5-.8,1.62-.53,2.96-1.37,4.04-2.52,1.08-1.15,1.62-2.67,1.62-4.57,0-1.59-.48-2.94-1.43-4.04-.96-1.1-2.2-2.04-3.75-2.82-1.54-.77-3.22-1.47-5.03-2.09-1.72-.53-3.42-1.15-5.11-1.86-1.69-.71-3.26-1.56-4.7-2.55-1.45-.99-2.62-2.22-3.53-3.68-.91-1.46-1.36-3.23-1.36-5.3,0-2.52.67-4.72,2.02-6.6,1.35-1.88,3.2-3.36,5.55-4.44,2.35-1.08,5.04-1.67,8.08-1.76,3.43,0,6.45.38,9.08,1.13,2.62.75,4.93,1.66,6.94,2.72l-2.72,4.97Z"/><path class="cls-1" d="m30.08,59.35h8.19c8.41,0,15.3,6.67,15.75,15.04,3.56-5.78,3.8-12.78.62-18.85-3.22-6.15-9.21-9.86-16.04-9.94h-9.22c-8.69,0-15.77-7.14-15.77-15.92s7.07-15.91,15.77-15.91h29.17L67.28,0H29.38c-8,0-15.48,3.2-21.06,9.01C2.73,14.81-.22,22.46.01,30.54c.45,15.88,13.94,28.8,30.07,28.8Z"/><path class="cls-1" d="m135.49,92.02l-.25-.4v-21.03h-7.93v14.18l-.04,1.56h-1.5l-.84-.02-4.04-6.11-.29-.42v-10.28l-6.95-10.51-.39-.62.2-.67.22-.69.63-.29c8.84-4.03,15.15-12.16,16.87-21.74,1.52-8.47-.8-17.19-6.36-23.92-5.81-7.03-14.34-11.06-23.39-11.06h-19.05l-8.73,13.76h28.62c8.69,0,15.77,7.14,15.77,15.91,0,2.37-.51,4.67-1.52,6.82-2.6,5.53-8.19,9.1-14.25,9.1h-15.84l-25.74,39.01c-2.73,4.13-7.29,6.6-12.21,6.6H.07c.76,7.72,7.22,13.76,15.06,13.76h39.21c5.85,0,11.27-2.94,14.52-7.85l26.78-40.62,2.33,3.52,29.65,44.94h16.43l-8.56-12.94Z"/></g></svg>